<svg width="1600" height="900" viewBox="0 0 1600 900" fill="none" xmlns="http://www.w3.org/2000/svg">
  <rect width="1600" height="900" rx="0" fill="#FFFFFF"/>
  <rect x="94" y="84" width="1412" height="732" rx="0" fill="#FBF7F2" stroke="#E9E2D9"/>
  <circle cx="1285" cy="208" r="138" fill="#FF4D4F" fill-opacity="0.14"/>
  <circle cx="320" cy="704" r="168" fill="#101010" fill-opacity="0.06"/>
  <circle cx="1210" cy="650" r="88" fill="#101010" fill-opacity="0.05"/>
  <g filter="url(#shadow)">
    <rect x="176" y="156" width="608" height="560" rx="0" fill="#101010"/>
    <rect x="220" y="200" width="520" height="58" rx="0" fill="#1E1E1E"/>
    <rect x="220" y="286" width="520" height="210" rx="0" fill="#F4EFE8"/>
    <rect x="220" y="522" width="352" height="114" rx="0" fill="#F9F6F0"/>
    <rect x="590" y="522" width="150" height="114" rx="0" fill="#FF4D4F"/>
    <circle cx="612" cy="340" r="96" fill="#FF4D4F" fill-opacity="0.2"/>
    <rect x="250" y="560" width="260" height="14" rx="0" fill="#D0C6BC"/>
    <rect x="250" y="590" width="210" height="14" rx="0" fill="#D0C6BC"/>
    <rect x="250" y="620" width="178" height="14" rx="0" fill="#D0C6BC"/>
    <rect x="622" y="558" width="72" height="18" rx="0" fill="#FFFFFF" fill-opacity="0.88"/>
    <rect x="622" y="592" width="72" height="18" rx="0" fill="#FFFFFF" fill-opacity="0.88"/>
    <rect x="622" y="626" width="72" height="18" rx="0" fill="#FFFFFF" fill-opacity="0.88"/>
  </g>
  <g filter="url(#shadow)">
    <rect x="832" y="156" width="520" height="176" rx="0" fill="#FFFFFF"/>
    <rect x="864" y="188" width="128" height="18" rx="0" fill="#FF4D4F"/>
    <rect x="864" y="226" width="302" height="16" rx="0" fill="#D8D0C7"/>
    <rect x="864" y="256" width="240" height="16" rx="0" fill="#D8D0C7"/>
    <rect x="1096" y="186" width="186" height="132" rx="0" fill="#F4EFE8"/>
    <circle cx="1188" cy="252" r="46" fill="#101010" fill-opacity="0.08"/>
  </g>
  <g filter="url(#shadow)">
    <rect x="832" y="372" width="158" height="344" rx="0" fill="#F7F3ED"/>
    <rect x="1010" y="372" width="158" height="344" rx="0" fill="#101010"/>
    <rect x="1188" y="372" width="164" height="344" rx="0" fill="#FFFFFF"/>
    <rect x="862" y="404" width="98" height="14" rx="0" fill="#FF4D4F"/>
    <rect x="862" y="438" width="80" height="14" rx="0" fill="#D8D0C7"/>
    <rect x="862" y="470" width="64" height="14" rx="0" fill="#D8D0C7"/>
    <circle cx="911" cy="600" r="56" fill="#101010" fill-opacity="0.08"/>
    <rect x="1042" y="404" width="95" height="14" rx="0" fill="#FFFFFF" fill-opacity="0.9"/>
    <rect x="1042" y="438" width="74" height="14" rx="0" fill="#FFFFFF" fill-opacity="0.72"/>
    <rect x="1042" y="470" width="58" height="14" rx="0" fill="#FFFFFF" fill-opacity="0.5"/>
    <circle cx="1090" cy="604" r="56" fill="#FF4D4F" fill-opacity="0.22"/>
    <rect x="1220" y="404" width="86" height="14" rx="0" fill="#D8D0C7"/>
    <rect x="1220" y="438" width="120" height="14" rx="0" fill="#D8D0C7"/>
    <rect x="1220" y="470" width="90" height="14" rx="0" fill="#D8D0C7"/>
    <circle cx="1270" cy="600" r="50" fill="#FF4D4F" fill-opacity="0.18"/>
  </g>
  <rect x="176" y="744" width="1160" height="2" rx="0" fill="#E7DED3"/>
  <rect x="176" y="760" width="420" height="12" rx="0" fill="#D8D0C7"/>
  <rect x="620" y="760" width="236" height="12" rx="0" fill="#D8D0C7"/>
  <rect x="878" y="760" width="140" height="12" rx="0" fill="#D8D0C7"/>
  <defs>
    <filter id="shadow" x="120" y="120" width="1360" height="680" filterUnits="userSpaceOnUse" color-interpolation-filters="sRGB">
      <feFlood flood-opacity="0" result="BackgroundImageFix"/>
      <feColorMatrix in="SourceAlpha" type="matrix" values="0 0 0 0 0 0 0 0 0 0 0 0 0 0 0 0 0 0 127 0" result="hardAlpha"/>
      <feOffset dy="16"/>
      <feGaussianBlur stdDeviation="18"/>
      <feComposite in2="hardAlpha" operator="out"/>
      <feColorMatrix type="matrix" values="0 0 0 0 0.101961 0 0 0 0 0.101961 0 0 0 0 0.101961 0 0 0 0.08 0"/>
      <feBlend mode="normal" in2="BackgroundImageFix" result="effect1_dropShadow"/>
      <feBlend mode="normal" in="SourceGraphic" in2="effect1_dropShadow" result="shape"/>
    </filter>
  </defs>
</svg>
