<svg width="287" height="287" viewBox="0 0 287 287" fill="none" xmlns="http://www.w3.org/2000/svg">
<circle cx="143.21" cy="143.21" r="140.73" stroke="#050610" stroke-width="4.95964"/>
<path d="M104.38 41.5266C102.758 42.0996 101.315 42.1046 100.05 41.5417C98.781 40.9664 97.8488 39.837 97.2538 38.1536L96.1432 35.0112C95.5482 33.3277 95.5659 31.8696 96.1963 30.6369C96.8223 29.3916 97.9458 28.4825 99.5669 27.9096C101.175 27.3411 102.573 27.3452 103.758 27.9221C104.952 28.4821 105.82 29.5289 106.362 31.0627L106.402 31.175L103.97 32.0344L103.904 31.8473C103.631 31.0742 103.188 30.5154 102.575 30.1708C101.975 29.8219 101.232 29.8038 100.347 30.1168C99.4741 30.4253 98.883 30.9358 98.5737 31.6482C98.2644 32.3607 98.2729 33.1784 98.599 34.1011L99.736 37.3183C100.058 38.2286 100.565 38.87 101.258 39.2424C101.946 39.6023 102.727 39.628 103.599 39.3195C104.485 39.0066 105.051 38.5258 105.299 37.8772C105.555 37.2116 105.548 36.4986 105.279 35.7379L105.16 35.4012L107.592 34.5418L107.685 34.8037C108.227 36.3375 108.211 37.7035 107.639 38.9018C107.075 40.0831 105.988 40.9581 104.38 41.5266ZM115.688 37.4517L113.159 23.797L119.089 22.6986C119.948 22.5396 120.723 22.5506 121.416 22.7317C122.108 22.9128 122.681 23.2439 123.133 23.7251C123.585 24.2062 123.88 24.8174 124.017 25.5587L124.061 25.7928C124.213 26.612 124.14 27.3114 123.844 27.8908C123.548 28.4703 123.135 28.93 122.607 29.2701L122.672 29.6212C123.197 29.5509 123.634 29.6583 123.982 29.9434C124.329 30.2155 124.552 30.6247 124.653 31.1709L125.481 35.6379L122.906 36.1148L122.147 32.0184C122.089 31.7063 121.958 31.4684 121.753 31.3046C121.561 31.1385 121.276 31.0903 120.899 31.1602L117.31 31.825L118.263 36.9748L115.688 37.4517ZM116.876 29.4842L119.958 28.9133C120.569 28.8001 121.014 28.5496 121.292 28.1619C121.58 27.7587 121.674 27.284 121.573 26.7379L121.537 26.5428C121.435 25.9966 121.186 25.5923 120.787 25.3298C120.387 25.0543 119.874 24.9743 119.25 25.09L116.168 25.6608L116.876 29.4842ZM132.503 34.5L131.661 20.6385L134.275 20.4798L135.117 34.3413L132.503 34.5ZM141.325 34.0075L145.801 20.3642L150.355 20.6376L153.167 34.7184L150.474 34.5567L149.904 31.4619L144.954 31.1647L144.018 34.1691L141.325 34.0075ZM145.713 28.7856L149.435 29.0091L148.158 22.1552L147.801 22.1338L145.713 28.7856ZM159.335 35.2921L162.307 21.7267L167.171 22.7922L167.275 35.2035L167.624 35.2799L170.213 23.4586L172.733 24.0105L169.761 37.5758L164.897 36.5104L164.793 24.0991L164.444 24.0227L161.855 35.8439L159.335 35.2921ZM176.323 39.1666L177.178 37.0302L178.872 37.7084L182.323 29.0888L180.628 28.4106L181.483 26.2741L186.788 28.3973C188.519 29.0903 189.656 30.0582 190.198 31.301C190.758 32.5365 190.691 34.0199 189.998 35.7512L189.025 38.1823C188.332 39.9136 187.355 41.0394 186.092 41.5598C184.847 42.0728 183.359 41.9828 181.627 41.2898L176.323 39.1666ZM181.333 38.6079L182.549 39.0944C183.531 39.4876 184.353 39.5173 185.013 39.1834C185.674 38.8496 186.191 38.216 186.565 37.2829L187.597 34.7044C187.975 33.7589 188.038 32.9435 187.785 32.2583C187.537 31.5607 186.922 31.0154 185.94 30.6222L184.724 30.1356L181.333 38.6079ZM197.559 49.1251C196.064 48.2238 195.12 47.0991 194.728 45.751C194.343 44.3916 194.611 42.9473 195.533 41.4181L197.254 38.5638C198.176 37.0346 199.324 36.1286 200.699 35.8456C202.081 35.5513 203.52 35.8548 205.015 36.7561C206.51 37.6574 207.45 38.7877 207.835 40.1472C208.227 41.4953 207.962 42.9339 207.04 44.463L205.32 47.3174C204.398 48.8466 203.246 49.7583 201.864 50.0526C200.489 50.3355 199.054 50.0264 197.559 49.1251ZM198.767 47.1202C199.605 47.6255 200.404 47.7746 201.162 47.5675C201.92 47.3603 202.544 46.849 203.036 46.0335L204.839 43.0432C205.33 42.2276 205.491 41.4364 205.32 40.6694C205.149 39.9024 204.644 39.2662 203.806 38.761C202.979 38.2625 202.181 38.1134 201.412 38.3137C200.654 38.5209 200.029 39.0322 199.538 39.8477L197.735 42.838C197.243 43.6536 197.083 44.4448 197.254 45.2118C197.436 45.9857 197.94 46.6218 198.767 47.1202ZM215.794 61.5542L225.573 51.6936L231.912 57.9797L230.235 59.6701L225.756 55.2279L223.423 57.5804L227.508 61.6314L225.832 63.3218L221.747 59.2708L219.33 61.7077L223.894 66.2337L222.218 67.9241L215.794 61.5542ZM226.154 71.9187L234.199 70.993L237.311 63.6496L239.089 66.0352L236.714 71.2461L236.927 71.5324L242.599 70.7429L244.378 73.1285L236.452 74.0149L233.269 81.4613L231.49 79.0756L233.937 73.7618L233.724 73.4755L227.933 74.3043L226.154 71.9187ZM236.852 86.6033L249.129 80.1147L251.799 85.1662C252.207 85.9379 252.407 86.6996 252.401 87.4511C252.412 88.2081 252.223 88.8986 251.835 89.5227C251.453 90.1584 250.876 90.6802 250.104 91.088L249.859 91.2178C249.099 91.6195 248.339 91.7963 247.581 91.7483C246.841 91.7058 246.155 91.4698 245.524 91.0403C244.911 90.6163 244.407 90.0302 244.011 89.2818L242.565 86.5456L238.075 88.9185L236.852 86.6033ZM244.67 85.4333L245.996 87.9415C246.286 88.491 246.673 88.855 247.156 89.0335C247.639 89.2119 248.144 89.1621 248.67 88.884L248.846 88.7913C249.372 88.5132 249.697 88.1243 249.822 87.6245C249.947 87.1248 249.864 86.6001 249.574 86.0505L248.248 83.5423L244.67 85.4333ZM244.391 101.285L257.495 96.6874L260.451 105.111L258.205 105.899L256.116 99.9466L252.99 101.044L254.895 106.472L252.648 107.26L250.743 101.832L247.505 102.968L249.633 109.033L247.387 109.822L244.391 101.285ZM249.346 115.993L262.988 113.398L264.115 119.322C264.278 120.18 264.271 120.956 264.093 121.649C263.915 122.343 263.587 122.917 263.108 123.371C262.629 123.826 262.019 124.123 261.279 124.264L261.045 124.309C260.226 124.465 259.526 124.396 258.946 124.102C258.365 123.809 257.903 123.399 257.56 122.871L257.21 122.938C257.282 123.463 257.177 123.9 256.894 124.25C256.623 124.598 256.215 124.824 255.67 124.927L251.207 125.776L250.717 123.204L254.81 122.425C255.122 122.366 255.359 122.233 255.522 122.027C255.687 121.834 255.734 121.549 255.662 121.173L254.98 117.587L249.835 118.565L249.346 115.993ZM257.319 117.142L257.904 120.221C258.021 120.832 258.273 121.275 258.662 121.551C259.067 121.838 259.542 121.929 260.088 121.825L260.283 121.788C260.828 121.684 261.231 121.433 261.492 121.033C261.765 120.631 261.843 120.118 261.724 119.495L261.139 116.415L257.319 117.142ZM252.374 132.791L266.234 131.923L266.397 134.537L252.538 135.404L252.374 132.791ZM252.838 142.562L266.707 143.26L266.258 152.176L263.881 152.057L264.198 145.756L260.889 145.589L260.6 151.335L258.222 151.215L258.511 145.47L255.084 145.297L254.76 151.716L252.383 151.597L252.838 142.562ZM267.819 144.071L270.28 146.46L270.125 149.551L267.435 151.68L267.569 149.025L268.926 148.12L268.944 147.763L267.685 146.726L267.819 144.071ZM251.858 158.048L265.46 160.85L264.455 165.727L252.046 165.987L251.974 166.336L263.827 168.778L263.307 171.304L249.705 168.502L250.71 163.625L263.119 163.365L263.191 163.016L251.338 160.574L251.858 158.048ZM245.918 180.284C246.531 178.678 247.461 177.575 248.709 176.975C249.97 176.38 251.434 176.401 253.102 177.038L256.216 178.226C257.884 178.863 258.984 179.82 259.515 181.099C260.059 182.382 260.024 183.827 259.411 185.434C258.803 187.027 257.895 188.09 256.687 188.62C255.487 189.167 254.128 189.15 252.608 188.57L252.497 188.528L253.416 186.118L253.602 186.189C254.368 186.482 255.08 186.506 255.74 186.262C256.394 186.031 256.889 185.476 257.224 184.599C257.554 183.734 257.548 182.953 257.205 182.256C256.862 181.559 256.234 181.036 255.319 180.687L252.131 179.47C251.229 179.126 250.412 179.097 249.68 179.384C248.96 179.675 248.435 180.254 248.105 181.119C247.77 181.996 247.769 182.739 248.103 183.348C248.445 183.974 248.993 184.43 249.746 184.718L250.08 184.845L249.16 187.255L248.901 187.156C247.381 186.576 246.35 185.68 245.807 184.467C245.273 183.272 245.309 181.878 245.918 180.284ZM241.735 191.556L253.978 198.112L252.741 200.42L240.499 193.865L241.735 191.556ZM237.527 199.324L246.795 210.291L244.173 214.026L230.71 209.034L232.261 206.826L235.194 207.964L238.044 203.905L235.977 201.532L237.527 199.324ZM239.671 205.799L237.528 208.851L244.034 211.358L244.239 211.066L239.671 205.799ZM223.44 217.261C224.184 216.49 224.979 215.943 225.824 215.619C226.669 215.295 227.51 215.214 228.345 215.377C229.18 215.54 229.96 215.97 230.683 216.668L231.083 217.053L229.293 218.91L228.893 218.524C228.293 217.946 227.662 217.695 226.999 217.773C226.346 217.859 225.712 218.221 225.097 218.859C224.472 219.506 224.137 220.111 224.091 220.673C224.036 221.245 224.208 221.723 224.608 222.109C224.884 222.375 225.186 222.51 225.513 222.513C225.832 222.526 226.19 222.431 226.589 222.228C226.987 222.043 227.441 221.782 227.949 221.445L228.338 221.186C229.151 220.647 229.911 220.241 230.617 219.966C231.323 219.71 231.995 219.633 232.633 219.733C233.261 219.844 233.88 220.193 234.49 220.78C235.099 221.368 235.48 222.011 235.633 222.71C235.786 223.427 235.724 224.158 235.448 224.902C235.172 225.664 234.689 226.403 234.001 227.117C233.312 227.831 232.578 228.344 231.798 228.658C231.018 228.99 230.234 229.079 229.445 228.925C228.657 228.789 227.901 228.372 227.178 227.675L226.75 227.261L228.54 225.405L228.968 225.818C229.349 226.186 229.727 226.403 230.103 226.471C230.478 226.558 230.852 226.514 231.223 226.339C231.603 226.173 231.977 225.9 232.344 225.519C232.895 224.948 233.194 224.419 233.242 223.931C233.289 223.463 233.127 223.05 232.756 222.691C232.509 222.453 232.24 222.313 231.949 222.271C231.649 222.239 231.318 222.297 230.956 222.443C230.594 222.59 230.177 222.822 229.706 223.139L229.318 223.399C228.477 223.966 227.685 224.396 226.942 224.69C226.19 224.994 225.476 225.105 224.801 225.024C224.126 224.942 223.484 224.608 222.875 224.02C222.266 223.433 221.879 222.757 221.716 221.993C221.553 221.247 221.613 220.461 221.898 219.632C222.182 218.823 222.697 218.033 223.44 217.261ZM203.244 234.335C204.699 233.419 206.105 233.095 207.463 233.364C208.828 233.645 209.987 234.54 210.939 236.051L212.717 238.87C213.669 240.38 213.974 241.806 213.631 243.148C213.296 244.501 212.401 245.636 210.947 246.553C209.503 247.462 208.14 247.767 206.856 247.467C205.568 247.184 204.49 246.355 203.622 244.979L203.559 244.878L205.741 243.503L205.846 243.671C206.284 244.364 206.839 244.811 207.513 245.012C208.175 245.22 208.904 245.073 209.698 244.572C210.481 244.079 210.945 243.45 211.089 242.687C211.233 241.924 211.045 241.128 210.523 240.3L208.703 237.414C208.188 236.597 207.551 236.084 206.794 235.873C206.043 235.675 205.276 235.822 204.493 236.316C203.698 236.817 203.252 237.411 203.154 238.098C203.051 238.803 203.215 239.498 203.646 240.18L203.836 240.482L201.654 241.857L201.506 241.623C200.639 240.246 200.352 238.911 200.645 237.616C200.935 236.339 201.801 235.245 203.244 234.335ZM188.041 242.66C189.648 241.977 191.112 241.871 192.434 242.343C193.761 242.828 194.774 243.892 195.473 245.534L196.778 248.601C197.478 250.244 197.539 251.706 196.962 252.986C196.391 254.278 195.302 255.266 193.696 255.95C192.09 256.633 190.623 256.733 189.296 256.248C187.973 255.776 186.963 254.718 186.264 253.075L184.959 250.009C184.26 248.366 184.196 246.898 184.767 245.606C185.343 244.326 186.435 243.344 188.041 242.66ZM188.958 244.814C188.057 245.198 187.469 245.757 187.192 246.493C186.916 247.228 186.964 248.034 187.337 248.91L188.704 252.123C189.077 252.999 189.625 253.593 190.346 253.904C191.068 254.215 191.879 254.179 192.779 253.796C193.668 253.418 194.256 252.858 194.545 252.117C194.821 251.382 194.773 250.576 194.4 249.7L193.033 246.487C192.66 245.611 192.113 245.017 191.391 244.706C190.657 244.4 189.846 244.436 188.958 244.814ZM176.528 247.603L179.562 261.155L174.819 262.217L169.833 250.932L169.484 251.01L169.785 263.344L165.042 264.405L162.009 250.854L164.487 250.299L167.1 261.973L167.448 261.895L167.158 249.701L171.379 248.756L176.315 259.91L176.663 259.832L174.05 248.158L176.528 247.603ZM145.446 252.854L145.343 266.741L142.725 266.722L142.827 252.835L145.446 252.854ZM135.668 252.616L133.799 266.376L128.864 265.706L127.761 253.343L127.407 253.295L125.778 265.287L123.223 264.939L125.092 251.179L130.026 251.849L131.13 264.212L131.483 264.26L133.112 252.268L135.668 252.616ZM114.959 249.103L111.681 260.132L115.56 261.285L114.882 263.567L104.613 260.515L105.292 258.233L109.171 259.386L112.449 248.357L114.959 249.103ZM102.57 245.224L96.7362 257.826L88.6347 254.076L89.6348 251.915L95.3598 254.565L96.7516 251.559L91.5306 249.142L92.5307 246.982L97.7516 249.398L99.1934 246.284L93.3604 243.584L94.3604 241.423L102.57 245.224ZM88.5716 238.524L80.8859 250.09L76.7386 247.334L81.1393 235.729L80.8419 235.531L74.1444 245.61L71.9964 244.183L79.682 232.617L83.8294 235.373L79.4286 246.978L79.726 247.176L86.4235 237.096L88.5716 238.524ZM70.1517 224.716C71.417 225.88 72.0971 227.153 72.192 228.534C72.278 229.925 71.7165 231.278 70.5075 232.591L68.2509 235.044C67.0419 236.358 65.7452 237.025 64.3608 237.045C62.9674 237.075 61.638 236.508 60.3728 235.344C59.1173 234.189 58.4668 232.952 58.4213 231.634C58.3571 230.317 58.8758 229.06 59.9772 227.863L60.0578 227.775L61.9557 229.522L61.8214 229.668C61.2662 230.271 60.9798 230.924 60.9622 231.627C60.9349 232.321 61.2668 232.985 61.9578 233.621C62.6391 234.248 63.367 234.531 64.1413 234.471C64.9157 234.411 65.6342 234.02 66.2969 233.3L68.6073 230.789C69.261 230.079 69.5903 229.33 69.595 228.544C69.5907 227.767 69.248 227.065 68.5667 226.438C67.8757 225.803 67.1856 225.527 66.4965 225.612C65.7887 225.698 65.1616 226.037 64.6154 226.631L64.3736 226.894L62.4757 225.147L62.6638 224.943C63.7652 223.746 64.9794 223.12 66.3062 223.065C67.6144 223.01 68.8962 223.561 70.1517 224.716ZM72.8383 221.796C73.1497 222.082 73.4294 222.394 73.6774 222.73C73.9157 223.057 74.1105 223.353 74.2619 223.618L72.9625 224.444C72.8313 224.216 72.6859 223.983 72.5263 223.746C72.357 223.501 72.1409 223.257 71.8781 223.015C71.6834 222.836 71.4915 222.722 71.3023 222.674C71.1131 222.626 70.9513 222.675 70.817 222.821C70.6916 222.957 70.656 223.113 70.7101 223.288C70.7634 223.445 70.9166 223.64 71.1697 223.873L71.7244 224.384L70.279 225.749L69.0235 224.594L69.8744 223.787C69.5045 223.446 69.2871 223.058 69.2221 222.62C69.1474 222.174 69.2936 221.752 69.6608 221.353C69.9473 221.041 70.2726 220.873 70.6367 220.849C71.0096 220.814 71.3873 220.892 71.7696 221.082C72.1511 221.254 72.5073 221.491 72.8383 221.796ZM61.9634 217.484L48.823 223.272L45.9826 219.701L54.5782 208.2L56.2578 210.311L54.3361 212.803L57.4236 216.685L60.2838 215.373L61.9634 217.484ZM55.1466 217.71L52.8248 214.791L48.5803 220.322L48.8026 220.602L55.1466 217.71ZM48.1336 223.872L48.1321 225.495L47.0693 225.529C46.6727 225.541 46.3248 225.496 46.0256 225.396C45.7181 225.286 45.4491 225.086 45.2186 224.796C45.021 224.548 44.8967 224.317 44.8456 224.104C44.7946 223.891 44.7715 223.639 44.7765 223.348C44.777 223.179 44.7826 223.005 44.7934 222.827C44.7857 222.648 44.72 222.48 44.5965 222.325C44.4648 222.159 44.306 222.066 44.1202 222.045C43.9343 222.024 43.7474 222.012 43.5595 222.009L43.008 222.017L43.0094 220.393L44.0722 220.359C44.4688 220.348 44.8208 220.397 45.1283 220.508C45.4275 220.608 45.6924 220.803 45.9229 221.092C46.1205 221.341 46.2448 221.572 46.2959 221.784C46.3469 221.997 46.37 222.249 46.365 222.541C46.3646 222.71 46.3682 222.884 46.376 223.064C46.3652 223.242 46.4215 223.408 46.545 223.564C46.6767 223.729 46.8355 223.823 47.0214 223.844C47.2072 223.865 47.3941 223.877 47.582 223.879L48.1336 223.872ZM48.5689 198.47C49.4215 199.994 49.6842 201.438 49.357 202.803C49.0183 204.175 48.0699 205.297 46.5118 206.169L43.6034 207.796C42.0453 208.668 40.5989 208.887 39.2641 208.452C37.9178 208.023 36.8184 207.047 35.9658 205.523C35.1132 204 34.8563 202.552 35.195 201.181C35.5222 199.815 36.4649 198.697 38.0229 197.825L40.9314 196.197C42.4894 195.325 43.9416 195.104 45.2879 195.532C46.6227 195.967 47.7164 196.947 48.5689 198.47ZM46.5261 199.613C46.0482 198.759 45.4286 198.235 44.6676 198.039C43.9065 197.844 43.1104 197.978 42.2795 198.444L39.2325 200.149C38.4016 200.614 37.8703 201.222 37.6389 201.973C37.4074 202.724 37.5307 203.526 38.0086 204.38C38.4801 205.223 39.0996 205.747 39.8672 205.954C40.6283 206.15 41.4243 206.015 42.2553 205.55L45.3022 203.845C46.1332 203.38 46.6644 202.772 46.8959 202.021C47.1209 201.258 46.9976 200.456 46.5261 199.613ZM38.9924 179.023L36.7673 179.61L36.3015 177.846L27.3245 180.215L27.7903 181.98L25.5652 182.567L24.1071 177.043C23.6312 175.24 23.7304 173.75 24.4047 172.574C25.0628 171.388 26.2934 170.557 28.0965 170.081L30.6285 169.412C32.4315 168.937 33.9183 169.05 35.0888 169.753C36.2432 170.447 37.0583 171.696 37.5342 173.499L38.9924 179.023ZM35.5565 175.334L35.2223 174.068C34.9523 173.045 34.4863 172.368 33.8243 172.036C33.1623 171.705 32.3454 171.668 31.3735 171.924L28.6881 172.633C27.7034 172.893 27.0114 173.329 26.612 173.94C26.1998 174.555 26.1287 175.374 26.3988 176.397L26.7329 177.663L35.5565 175.334ZM34.5565 161.438L20.7469 162.902L19.8057 154.025L22.1731 153.774L22.8382 160.047L26.1327 159.698L25.5262 153.977L27.8936 153.726L28.5001 159.447L31.913 159.085L31.2354 152.693L33.6028 152.442L34.5565 161.438ZM33.5702 141.181C33.5291 142.251 33.3011 143.189 32.8863 143.993C32.4716 144.798 31.8985 145.418 31.167 145.853C30.4356 146.288 29.5676 146.486 28.5632 146.448L28.0081 146.426L28.1073 143.849L28.6623 143.871C29.4949 143.903 30.1326 143.669 30.5753 143.17C31.0048 142.67 31.2366 141.978 31.2707 141.092C31.3052 140.193 31.1525 139.519 30.8124 139.069C30.4729 138.606 30.0256 138.364 29.4705 138.343C29.0872 138.328 28.7723 138.428 28.5258 138.644C28.2798 138.846 28.076 139.156 27.9143 139.573C27.74 139.977 27.5753 140.474 27.4203 141.063L27.3036 141.515C27.0556 142.459 26.7597 143.268 26.4161 143.943C26.0598 144.604 25.6102 145.11 25.0673 145.46C24.525 145.796 23.8309 145.948 22.9851 145.915C22.1393 145.883 21.4266 145.657 20.8471 145.238C20.255 144.805 19.8143 144.219 19.525 143.479C19.2231 142.727 19.0912 141.855 19.1293 140.863C19.1674 139.872 19.373 139 19.7461 138.247C20.1065 137.48 20.6321 136.891 21.3229 136.481C22.0009 136.057 22.8422 135.864 23.8466 135.903L24.4413 135.926L24.3422 138.503L23.7475 138.48C23.2188 138.46 22.7919 138.549 22.4666 138.748C22.1285 138.934 21.8795 139.216 21.7194 139.593C21.546 139.97 21.4492 140.423 21.4289 140.952C21.3984 141.745 21.5277 142.339 21.817 142.734C22.0935 143.115 22.4895 143.316 23.0049 143.335C23.3485 143.349 23.6425 143.274 23.887 143.111C24.132 142.935 24.3407 142.672 24.513 142.321C24.6853 141.971 24.8416 141.52 24.9819 140.969L25.0986 140.517C25.3481 139.534 25.6521 138.686 26.0105 137.971C26.3693 137.244 26.8276 136.686 27.3852 136.297C27.9428 135.908 28.6445 135.73 29.4903 135.763C30.3361 135.795 31.0744 136.042 31.7052 136.503C32.3234 136.95 32.8022 137.577 33.1417 138.385C33.4686 139.178 33.6114 140.11 33.5702 141.181ZM33.8703 129.913L31.6138 129.462L31.972 127.672L22.8681 125.85L22.5099 127.64L20.2534 127.188L21.3747 121.586C21.7407 119.757 22.4853 118.463 23.6085 117.703C24.7213 116.928 26.192 116.723 28.0206 117.089L30.5883 117.603C32.4169 117.969 33.702 118.725 34.4436 119.872C35.1749 121.003 35.3576 122.482 34.9916 124.311L33.8703 129.913ZM32.4081 125.089L32.6651 123.805C32.8727 122.767 32.7522 121.954 32.3036 121.365C31.8549 120.776 31.1378 120.383 30.1522 120.186L27.4288 119.641C26.4302 119.441 25.6171 119.528 24.9893 119.901C24.3486 120.272 23.9244 120.976 23.7168 122.014L23.4598 123.298L32.4081 125.089ZM37.6253 112.169L24.5825 107.401L27.6477 99.0161L29.8836 99.8334L27.7175 105.759L30.8292 106.896L32.8045 101.493L35.0404 102.31L33.0651 107.714L36.2885 108.892L38.4954 102.855L40.7313 103.672L37.6253 112.169ZM47.275 89.5394L45.8855 88.6194C45.0805 88.0864 44.5009 87.5124 44.1468 86.8972C43.7817 86.2748 43.5925 85.6023 43.5792 84.8797C43.5622 84.1388 43.6844 83.3314 43.9457 82.4575L44.3321 81.1193C44.47 80.6236 44.5364 80.1759 44.5315 79.7761C44.5155 79.369 44.4172 79.0025 44.2364 78.6766C44.0629 78.3397 43.7997 78.0544 43.4469 77.8207L43.3807 77.7769C42.8293 77.4118 42.2696 77.3109 41.7015 77.4741C41.1225 77.63 40.6175 78.0333 40.1867 78.6839C39.7633 79.3235 39.5965 79.9586 39.6866 80.5893C39.7729 81.2016 40.1413 81.7231 40.792 82.1539L41.0897 82.351L39.6878 84.4683L39.4232 84.2931C38.5851 83.7382 37.9979 83.0798 37.6617 82.3179C37.3255 81.5559 37.2147 80.753 37.3294 79.9089C37.4515 79.0539 37.7753 78.2293 38.301 77.4353C38.8267 76.6414 39.4557 76.0268 40.188 75.5916C40.9092 75.1492 41.666 74.9285 42.4583 74.9297C43.2469 74.9125 44.0106 75.1485 44.7495 75.6377L44.9149 75.7472C45.6537 76.2364 46.1801 76.807 46.494 77.4589C46.8041 78.0926 46.953 78.778 46.9406 79.5154C46.9173 80.2454 46.7913 81.0106 46.5627 81.811L46.1926 83.0887C46.022 83.6578 45.9373 84.1331 45.9385 84.5146C45.9287 84.8888 45.9921 85.2004 46.1286 85.4494C46.2614 85.68 46.4711 85.8903 46.7578 86.0801L46.824 86.124L50.953 79.8878L52.8387 81.1364L47.275 89.5394ZM60.3641 72.058C59.2593 73.2699 58.0404 73.9395 56.7075 74.0666C55.3648 74.1848 54.0142 73.6246 52.6557 72.3861L50.0754 70.0337C48.756 68.8308 48.0883 67.551 48.0725 66.1942C48.0468 64.8286 48.5864 63.5398 49.6913 62.3278C50.8051 61.1061 52.0387 60.45 53.392 60.3594C54.7444 60.2501 56.0804 60.7969 57.3998 61.9998L59.98 64.3521C61.3386 65.5907 62.0209 66.8839 62.027 68.2317C62.0322 69.5609 61.4779 70.8363 60.3641 72.058ZM58.6929 70.5343C59.3611 69.8013 59.6508 69.0811 59.562 68.3737C59.482 67.6565 59.0707 66.9593 58.3279 66.2821L55.601 63.7961C54.8485 63.11 54.1034 62.7887 53.3658 62.8321C52.6273 62.8569 51.9596 63.1967 51.3626 63.8515C50.7478 64.5259 50.467 65.2363 50.5202 65.9828C50.5823 66.7196 50.975 67.4176 51.6983 68.077L54.4251 70.563C55.1972 71.2669 55.9392 71.6212 56.6509 71.6257C57.3617 71.6116 58.0424 71.2478 58.6929 70.5343ZM68.2047 63.2328L67.1574 61.9366C66.5506 61.1857 66.1711 60.4636 66.019 59.7703C65.8586 59.0667 65.881 58.3685 66.0863 57.6755C66.2935 56.9639 66.6535 56.231 67.1662 55.4766L67.9382 54.3172C68.2191 53.8862 68.4174 53.4794 68.5333 53.0967C68.6409 52.7037 68.6576 52.3246 68.5835 51.9594C68.5197 51.5858 68.3549 51.2344 68.0889 50.9053L68.039 50.8435C67.6234 50.3292 67.1202 50.0641 66.5293 50.0484C65.9302 50.0224 65.3272 50.2546 64.7202 50.7451C64.1236 51.2272 63.7731 51.7824 63.6687 52.4109C63.5664 53.0207 63.7604 53.6291 64.2508 54.236L64.4752 54.5138L62.5001 56.1097L62.3006 55.8629C61.6689 55.081 61.3076 54.2762 61.2168 53.4484C61.126 52.6205 61.2626 51.8215 61.6265 51.0514C62.0007 50.2729 62.5582 49.5844 63.2988 48.986C64.0395 48.3875 64.8245 47.9912 65.6539 47.7971C66.475 47.5928 67.2631 47.6106 68.0182 47.8507C68.7753 48.0721 69.4323 48.5275 69.9892 49.2167L70.1139 49.371C70.6708 50.0603 71.0006 50.763 71.1032 51.4792C71.2078 52.1769 71.1431 52.8753 70.9089 53.5746C70.6665 54.2636 70.3156 54.9552 69.8563 55.6494L69.1181 56.756C68.7838 57.2472 68.5597 57.6748 68.4459 58.0389C68.3236 58.3927 68.2901 58.7089 68.3451 58.9875C68.4022 59.2474 68.5387 59.5112 68.7549 59.7786L68.8047 59.8404L74.6221 55.1398L76.0435 56.8989L68.2047 63.2328ZM85.8875 50.3866C84.4873 51.2404 83.1296 51.5416 81.8145 51.2902C80.4925 51.0275 79.3529 50.1113 78.3958 48.5417L76.5781 45.5607C75.6485 44.0363 75.3662 42.6206 75.7311 41.3138C76.0891 39.9956 76.9682 38.9096 78.3684 38.0558C79.7799 37.1951 81.1479 36.9109 82.4724 37.2031C83.8013 37.4771 84.9305 38.3763 85.86 39.9007L87.6778 42.8818C88.6349 44.4514 88.9276 45.8839 88.5558 47.1795C88.1884 48.4569 87.299 49.5259 85.8875 50.3866ZM84.71 48.4557C85.5569 47.9393 86.0368 47.3291 86.1497 46.6251C86.2739 45.9143 86.0744 45.1298 85.5511 44.2716L83.63 41.1211C83.0998 40.2516 82.4746 39.7344 81.7544 39.5695C81.0386 39.3863 80.3024 39.5254 79.5458 39.9867C78.7667 40.4619 78.2981 41.0652 78.14 41.7967C77.9932 42.5213 78.1746 43.3014 78.6841 44.137L80.6052 47.2875C81.1492 48.1795 81.7621 48.7275 82.4441 48.9313C83.1304 49.1169 83.8857 48.9584 84.71 48.4557Z" fill="#050610"/>
<path d="M91.9722 201.509L181.101 102.314" stroke="#050610" stroke-width="8" stroke-linecap="round"/>
<path d="M181.576 183.912C168.572 169.663 149.897 133.844 179.227 104.565" stroke="#050610" stroke-width="8" stroke-linecap="round"/>
<path d="M99.3817 111.706C114.988 123.046 152.66 137.625 178.499 105.223" stroke="#050610" stroke-width="8" stroke-linecap="round"/>
</svg>



